<?xml version="1.0" encoding="UTF-8" standalone="no"?>
<svg
   xmlns:svg="http://www.w3.org/2000/svg"
   xmlns="http://www.w3.org/2000/svg"
   width="23.96468mm"
   height="9.7678537mm"
   viewBox="0 0 23.96468 9.7678538"
   version="1.1"
>
  <g
     transform="translate(-82.353861,-94.044756)">
    <path
       style="font-style:normal;font-variant:normal;font-weight:normal;font-stretch:normal;font-size:14.50308704px;line-height:1.25;font-family:'Nova Flat';-inkscape-font-specification:'Nova Flat';letter-spacing:0px;word-spacing:0px;opacity:1;fill:#000;fill-opacity:1;stroke:none;stroke-width:0.36257717"
       d="m 106.31254,99.014748 0.006,3.102352 c 0.001,0.62682 -0.73854,1.10122 -2.21563,1.4232 -0.8264,0.18154 -1.73087,0.27231 -2.71343,0.27231 -0.98256,0 -1.887032,-0.0908 -2.713422,-0.27231 -1.4771,-0.32198 -2.21564,-0.67266 -2.21564,-1.4232 v -4.572761 c 0,-0.626824 0.73854,-1.101229 2.21564,-1.423206 0.82639,-0.181536 1.730862,-0.272308 2.713422,-0.272308 0.98256,0 1.88703,0.09077 2.71343,0.272308 1.47709,0.321977 2.21563,0.796382 2.21563,1.423206 v 0.770691 l -1.8545,0.462412 h -0.0976 v -1.233103 c 0,-0.236342 -0.39367,-0.436727 -1.18102,-0.601141 -0.54659,-0.11303 -1.14523,-0.169549 -1.79594,-0.169549 -0.6507,0 -1.24934,0.05652 -1.795932,0.169549 -0.78735,0.164414 -1.18102,0.364799 -1.18102,0.601141 v 4.572761 c 0,0.23634 0.39367,0.43672 1.18102,0.60114 0.546592,0.11303 1.145232,0.16955 1.795932,0.16955 0.65071,0 1.24935,-0.0565 1.79594,-0.16955 0.78735,-0.16442 1.18102,-0.3648 1.18102,-0.60114 l 0.11405,-2.01167 -2.59922,0.62742 0.0409,-0.771836 z" />
    <path
       style="font-style:normal;font-variant:normal;font-weight:normal;font-stretch:normal;font-size:14.50308704px;line-height:1.25;font-family:'Nova Flat';-inkscape-font-specification:'Nova Flat';letter-spacing:0px;word-spacing:0px;fill:#000;fill-opacity:1;stroke:none;stroke-width:0.36257717"
       d="m 84.305965,100.31303 q 0,0.34938 1.181023,0.60114 0.819883,0.16955 1.795936,0.16955 0.976051,0 1.795936,-0.16955 1.181022,-0.24663 1.181022,-0.60114 v -4.57276 q 0,-0.34938 -1.181022,-0.601141 -0.819885,-0.169549 -1.795936,-0.169549 -0.976053,0 -1.795936,0.169549 -1.181023,0.246624 -1.181023,0.601141 z m -1.952104,0 q 0,0 0,-4.57276 0,-0.94024 2.215638,-1.423206 1.239586,-0.272308 2.713425,-0.272308 1.473838,0 2.713425,0.272308 2.215639,0.482966 2.215639,1.423206 v 4.57276 q 0,0.94024 -2.215639,1.4232 -1.239587,0.27231 -2.713425,0.27231 -1.473839,0 -2.713425,-0.27231 -2.215638,-0.48296 -2.215638,-1.4232 z" />
    <path
       d="m 94.345145,95.583313 c -0.826392,0 -1.568498,0.06692 -2.225704,0.200504 -1.216811,0.246615 -1.825212,0.599345 -1.825212,1.058333 l 1.952336,0.179835 c 0.0013,-0.171257 0.201697,-0.299868 0.605131,-0.385509 0.409943,-0.08564 0.907818,-0.128156 1.493449,-0.128156 0.585631,0 1.080196,0.04253 1.48363,0.128156 0.409943,0.08563 0.61495,0.214247 0.61495,0.385509 v 4.521175 h 0.09715 l 1.854666,-0.46199 v -4.23902 c 0,-0.458988 -0.608399,-0.811718 -1.825213,-1.058333 -0.657206,-0.133559 -1.398793,-0.200504 -2.225185,-0.200504 z"
       style="font-style:normal;font-variant:normal;font-weight:normal;font-stretch:normal;font-size:14.50308704px;line-height:1.25;font-family:'Nova Flat';-inkscape-font-specification:'Nova Flat';letter-spacing:0px;word-spacing:0px;fill:#000;fill-opacity:1;stroke:none;stroke-width:0.36257717" />
  </g>
</svg>
